# xmcd
#
# Track frame offsets:
#	187
#	14430
#	32557
#	49922
#	66737
#	85220
#	101850
#	122437
#	137142
#	161265
#	176570
#	193300
#
# Disc length: 2830 seconds
#
# Revision: 1
# Processed by: cddbd v1.5.1PL0 Copyright (c) Steve Scherf et al.
# Submitted via: CDex 1.50Beta5
#
DISCID=a90b0c0c
DTITLE=COLLECTORS,THE - ドクターフリーク&ミスターマニア
DYEAR=1991
DGENRE=Pop
TTITLE0=太陽はひとりぼっち
TTITLE1=僕はプリズナー345号
TTITLE2=Too Much Romantic
TTITLE3=太陽が昇るまえに
TTITLE4=夢見る君と僕
TTITLE5=僕はコレクター
TTITLE6=魔法のランプ
TTITLE7=…30…
TTITLE8=ロケットマン
TTITLE9=僕は恐竜
TTITLE10=気狂い(クレイジー)アップル
TTITLE11=ぼくのプロペラ
EXTD=
EXTT0=
EXTT1=
EXTT2=
EXTT3=
EXTT4=
EXTT5=
EXTT6=
EXTT7=
EXTT8=
EXTT9=
EXTT10=
EXTT11=
PLAYORDER=
